<svg width="25" height="24" viewBox="0 0 25 24" fill="none" xmlns="http://www.w3.org/2000/svg">
<path fill-rule="evenodd" clip-rule="evenodd" d="M12.4999 21.5999C17.8018 21.5999 22.0999 17.3018 22.0999 11.9999C22.0999 6.69797 17.8018 2.3999 12.4999 2.3999C7.19797 2.3999 2.8999 6.69797 2.8999 11.9999C2.8999 17.3018 7.19797 21.5999 12.4999 21.5999ZM16.9484 10.4484C17.4171 9.9798 17.4171 9.22 16.9484 8.75137C16.4798 8.28275 15.72 8.28275 15.2514 8.75137L11.2999 12.7028L9.74843 11.1514C9.2798 10.6827 8.52 10.6827 8.05137 11.1514C7.58275 11.62 7.58275 12.3798 8.05137 12.8484L10.4514 15.2484C10.92 15.7171 11.6798 15.7171 12.1484 15.2484L16.9484 10.4484Z" fill="#46B277"/>
</svg>
