<svg width="25" height="24" viewBox="0 0 25 24" fill="none" xmlns="http://www.w3.org/2000/svg">
<path d="M12.3955 2C6.88551 2 2.39551 6.49 2.39551 12C2.39551 17.51 6.88551 22 12.3955 22C17.9055 22 22.3955 17.51 22.3955 12C22.3955 6.49 17.9055 2 12.3955 2ZM17.1755 9.7L11.5055 15.37C11.3655 15.51 11.1755 15.59 10.9755 15.59C10.7755 15.59 10.5855 15.51 10.4455 15.37L7.61551 12.54C7.32551 12.25 7.32551 11.77 7.61551 11.48C7.90551 11.19 8.38551 11.19 8.67551 11.48L10.9755 13.78L16.1155 8.64C16.4055 8.35 16.8855 8.35 17.1755 8.64C17.4655 8.93 17.4655 9.4 17.1755 9.7Z" fill="#3EBF8F"/>
</svg>
