<svg width="21" height="20" viewBox="0 0 21 20" fill="none" xmlns="http://www.w3.org/2000/svg">
<path d="M2.1665 6.66667L3.25317 7.53583C3.63174 7.83863 4.0718 8.0552 4.54267 8.17046C5.01353 8.28573 5.50387 8.2969 5.9795 8.2032C6.45512 8.1095 6.90459 7.91319 7.29656 7.62796C7.68852 7.34272 8.01356 6.97542 8.249 6.55167L10.4998 2.5L12.7507 6.55167C12.9862 6.97535 13.3113 7.34258 13.7033 7.62773C14.0953 7.91288 14.5448 8.10911 15.0204 8.20273C15.496 8.29634 15.9863 8.2851 16.4571 8.16978C16.928 8.05445 17.368 7.83783 17.7465 7.535L18.8332 6.66667L17.3715 13.975C17.3077 14.2939 17.1719 14.5941 16.9745 14.8526C16.7771 15.1111 16.5232 15.3211 16.2323 15.4667C14.4525 16.3567 12.4898 16.82 10.4998 16.82C8.50985 16.82 6.5472 16.3567 4.76734 15.4667C4.47644 15.3211 4.22261 15.1111 4.0252 14.8526C3.82778 14.5941 3.69199 14.2939 3.62817 13.975L2.1665 6.66667Z" stroke="#1D1E25" stroke-width="2" stroke-linecap="round" stroke-linejoin="round"/>
<path d="M7.1665 12.5C9.32984 13.6108 11.6698 13.6108 13.8332 12.5" stroke="#1D1E25" stroke-width="2" stroke-linecap="round" stroke-linejoin="round"/>
</svg>
