<svg width="126" height="28" viewBox="0 0 126 28" fill="none" xmlns="http://www.w3.org/2000/svg">
<path d="M18.1988 0.780518L17.9089 1.07037L15.8178 4.01034L17.0394 3.92752C18.2609 3.84471 20.9731 3.92752 20.9731 3.92752H25.7764L28.468 4.03104L29.9172 5.14906L30.7247 6.412L31.5529 8.15114L31.8634 9.55901L31.615 11.0497L31.056 12.1056L30.2899 12.8509L29.5239 13.3892L28.6543 13.7412L27.6605 13.8447L16.5425 13.8861H7.14286L3.89233 17.6336L4.05797 17.7578H5.19668H15.0311H21.0145L27.8883 17.8613L32.0705 23.2443L35.1346 27.2195L40.0001 27.0332L34.4307 19.7247L31.9462 16.2878C31.9462 16.2878 35.4245 10.9255 35.7144 10.0559C36.0042 9.18633 35.4245 7.15734 35.4245 7.15734C35.4245 7.15734 34.0949 4.27586 33.9338 4.03104C33.7727 3.78622 31.4907 1.93994 31.1595 1.7329C30.8282 1.52586 28.5508 0.821926 28.5508 0.821926C28.5508 0.821926 28.3023 0.780518 28.0125 0.780518H21.6149H18.3437H18.1988Z" fill="#021943"/>
<path d="M28.0124 7.40573H12.091L9.02686 11.3395H25.3209L28.0124 7.40573Z" fill="#3883CB"/>
<path d="M0 25.584L3.39545 21.4846H27.4328L30.8075 25.584H0Z" fill="#021943"/>
<path d="M50.4162 19.0119L47.8681 14H46.5482V19.0119H44V5.99568H49.078C50.3246 5.99568 51.3267 6.37509 52.0845 7.13391C52.8422 7.89273 53.221 8.84737 53.221 9.99784C53.221 10.9035 52.9705 11.6868 52.4694 12.3477C51.9806 12.9964 51.3084 13.4431 50.4529 13.6879L53.2394 19.0119H50.4162ZM46.5482 11.8153H48.6014C49.2369 11.8153 49.7318 11.6501 50.0863 11.3197C50.4529 10.9892 50.6362 10.5547 50.6362 10.0162C50.6362 9.46544 50.4529 9.02484 50.0863 8.69438C49.7318 8.36393 49.2369 8.1987 48.6014 8.1987H46.5482V11.8153Z" fill="black"/>
<path d="M55.8852 13.4676H59.9183C59.8938 12.9658 59.7105 12.5436 59.3683 12.2009C59.0383 11.8582 58.5495 11.6868 57.9017 11.6868C57.3151 11.6868 56.8385 11.8704 56.4718 12.2376C56.1052 12.6048 55.9097 13.0148 55.8852 13.4676ZM60.1566 15.8175L62.1914 16.4233C61.947 17.2556 61.4643 17.941 60.7432 18.4795C60.0344 19.018 59.1483 19.2873 58.0851 19.2873C56.7896 19.2873 55.6897 18.8528 54.7853 17.9838C53.8809 17.1026 53.4287 15.9276 53.4287 14.459C53.4287 13.0637 53.8687 11.9255 54.7486 11.0443C55.6286 10.1508 56.6674 9.7041 57.8651 9.7041C59.2583 9.7041 60.346 10.1202 61.1282 10.9525C61.9226 11.7847 62.3198 12.9291 62.3198 14.3855C62.3198 14.4834 62.3137 14.5936 62.3014 14.716C62.3014 14.8384 62.3014 14.9363 62.3014 15.0097L62.2831 15.1382H55.8302C55.8547 15.7257 56.0869 16.2153 56.5268 16.6069C56.9668 16.9986 57.4923 17.1944 58.1034 17.1944C59.1422 17.1944 59.8266 16.7354 60.1566 15.8175Z" fill="black"/>
<path d="M65.7613 22.5H63.3232V9.97948H65.688V11.081C65.908 10.7138 66.2624 10.4078 66.7513 10.1631C67.2401 9.90605 67.8084 9.77754 68.4562 9.77754C69.7394 9.77754 70.7538 10.2181 71.4993 11.0994C72.2448 11.9683 72.6175 13.0943 72.6175 14.4773C72.6175 15.8603 72.2203 16.9986 71.426 17.892C70.6438 18.7855 69.6233 19.2322 68.3645 19.2322C67.1668 19.2322 66.2991 18.865 65.7613 18.1307V22.5ZM69.5744 16.3683C70.0022 15.9032 70.216 15.279 70.216 14.4957C70.216 13.7124 70.0022 13.0943 69.5744 12.6415C69.1589 12.1886 68.6273 11.9622 67.9795 11.9622C67.3318 11.9622 66.794 12.1947 66.3663 12.6598C65.9385 13.1127 65.7247 13.7246 65.7247 14.4957C65.7247 15.2667 65.9385 15.8848 66.3663 16.3499C66.794 16.815 67.3318 17.0475 67.9795 17.0475C68.6273 17.0475 69.1589 16.8211 69.5744 16.3683Z" fill="black"/>
<path d="M88.3154 19.0119H85.8222V9.88769L82.0825 19.0119H79.9743L76.2345 9.96112V19.0119H73.8147V5.99568H77.1511L81.0559 15.3952L84.869 5.99568H88.3154V19.0119Z" fill="black"/>
<path d="M91.9121 13.4676H95.9451C95.9207 12.9658 95.7374 12.5436 95.3952 12.2009C95.0652 11.8582 94.5763 11.6868 93.9286 11.6868C93.342 11.6868 92.8653 11.8704 92.4987 12.2376C92.132 12.6048 91.9365 13.0148 91.9121 13.4676ZM96.1834 15.8175L98.2183 16.4233C97.9739 17.2556 97.4911 17.941 96.7701 18.4795C96.0612 19.018 95.1752 19.2873 94.1119 19.2873C92.8164 19.2873 91.7165 18.8528 90.8121 17.9838C89.9077 17.1026 89.4556 15.9276 89.4556 14.459C89.4556 13.0637 89.8955 11.9255 90.7755 11.0443C91.6554 10.1508 92.6942 9.7041 93.8919 9.7041C95.2852 9.7041 96.3729 10.1202 97.155 10.9525C97.9494 11.7847 98.3466 12.9291 98.3466 14.3855C98.3466 14.4834 98.3405 14.5936 98.3283 14.716C98.3283 14.8384 98.3283 14.9363 98.3283 15.0097L98.31 15.1382H91.8571C91.8815 15.7257 92.1137 16.2153 92.5537 16.6069C92.9937 16.9986 93.5192 17.1944 94.1302 17.1944C95.1691 17.1944 95.8535 16.7354 96.1834 15.8175Z" fill="black"/>
<path d="M107.948 5.7203V17.378C107.948 17.9777 107.972 18.5223 108.021 19.0119H105.693C105.632 18.7059 105.601 18.3571 105.601 17.9654C105.393 18.3449 105.064 18.6508 104.611 18.8834C104.171 19.1159 103.658 19.2322 103.071 19.2322C101.788 19.2322 100.731 18.7855 99.9 17.892C99.0811 16.9863 98.6717 15.8481 98.6717 14.4773C98.6717 13.1433 99.075 12.0234 99.8816 11.1177C100.7 10.212 101.739 9.75918 102.998 9.75918C104.294 9.75918 105.143 10.1325 105.546 10.8791V5.7203H107.948ZM101.128 14.4773C101.128 15.2729 101.336 15.9032 101.752 16.3683C102.167 16.8211 102.705 17.0475 103.365 17.0475C104.012 17.0475 104.544 16.815 104.96 16.3499C105.375 15.8848 105.583 15.2545 105.583 14.459C105.583 13.6757 105.375 13.0637 104.96 12.6231C104.544 12.1703 104.012 11.9438 103.365 11.9438C102.717 11.9438 102.179 12.1703 101.752 12.6231C101.336 13.076 101.128 13.694 101.128 14.4773Z" fill="black"/>
<path d="M112.114 19.0119H109.676V9.97948H112.114V19.0119ZM109.383 7.02376C109.383 6.60763 109.529 6.2527 109.823 5.95896C110.116 5.65299 110.471 5.5 110.886 5.5C111.302 5.5 111.656 5.64687 111.949 5.94061C112.243 6.23434 112.389 6.59539 112.389 7.02376C112.389 7.42765 112.243 7.77646 111.949 8.0702C111.656 8.36393 111.302 8.5108 110.886 8.5108C110.471 8.5108 110.116 8.36393 109.823 8.0702C109.529 7.77646 109.383 7.42765 109.383 7.02376Z" fill="#3782CA"/>
<path d="M113.258 16.5518C113.258 15.7808 113.509 15.1627 114.01 14.6976C114.511 14.2325 115.158 13.9388 115.953 13.8164L118.171 13.486C118.623 13.4248 118.849 13.2106 118.849 12.8434C118.849 12.5007 118.715 12.2192 118.446 11.9989C118.189 11.7786 117.817 11.6685 117.328 11.6685C116.814 11.6685 116.405 11.8092 116.1 12.0907C115.806 12.3722 115.641 12.721 115.605 13.1371L113.441 12.6782C113.527 11.8949 113.912 11.2034 114.596 10.6037C115.281 10.004 116.185 9.7041 117.309 9.7041C118.654 9.7041 119.644 10.0284 120.279 10.6771C120.915 11.3135 121.233 12.1336 121.233 13.1371V17.5799C121.233 18.1184 121.269 18.5958 121.343 19.0119H119.106C119.045 18.7426 119.014 18.3816 119.014 17.9287C118.44 18.8222 117.554 19.2689 116.356 19.2689C115.427 19.2689 114.676 18.9996 114.101 18.4611C113.539 17.9226 113.258 17.2862 113.258 16.5518ZM116.869 17.4514C117.444 17.4514 117.914 17.2923 118.281 16.9741C118.66 16.6436 118.849 16.1051 118.849 15.3585V14.9546L116.814 15.2667C116.069 15.3769 115.696 15.7563 115.696 16.405C115.696 16.6987 115.8 16.9496 116.008 17.1577C116.216 17.3535 116.503 17.4514 116.869 17.4514Z" fill="black"/>
<path d="M123.14 18.6631C122.81 18.3326 122.645 17.9348 122.645 17.4698C122.645 17.0047 122.81 16.613 123.14 16.2948C123.47 15.9644 123.861 15.7991 124.313 15.7991C124.778 15.7991 125.175 15.9644 125.505 16.2948C125.835 16.613 126 17.0047 126 17.4698C126 17.9348 125.835 18.3326 125.505 18.6631C125.175 18.9813 124.778 19.1404 124.313 19.1404C123.861 19.1404 123.47 18.9813 123.14 18.6631Z" fill="black"/>
</svg>
