<svg width="205" height="27" viewBox="0 0 205 27" fill="none" xmlns="http://www.w3.org/2000/svg">
<path d="M18.1988 0L17.9089 0.289856L15.8178 3.22982L17.0394 3.14701C18.2609 3.06419 20.9731 3.14701 20.9731 3.14701H25.7764L28.468 3.25053L29.9172 4.36854L30.7247 5.63148L31.5529 7.37062L31.8634 8.77849L31.615 10.2692L31.056 11.3251L30.2899 12.0704L29.5239 12.6087L28.6543 12.9607L27.6605 13.0642L16.5425 13.1056H7.14286L3.89233 16.853L4.05797 16.9773H5.19668H15.0311H21.0145L27.8883 17.0808L32.0705 22.4638L35.1346 26.439L40.0001 26.2526L34.4307 18.9441L31.9462 15.5073C31.9462 15.5073 35.4245 10.145 35.7144 9.27538C36.0042 8.40582 35.4245 6.37683 35.4245 6.37683C35.4245 6.37683 34.0949 3.49534 33.9338 3.25053C33.7727 3.00571 31.4907 1.15942 31.1595 0.952383C30.8282 0.745343 28.5508 0.041408 28.5508 0.041408C28.5508 0.041408 28.3023 0 28.0125 0H21.6149H18.3437H18.1988Z" fill="#021943"/>
<path d="M28.0124 6.62521H12.091L9.02686 10.559H25.3209L28.0124 6.62521Z" fill="#3883CB"/>
<path d="M0 24.8035L3.39545 20.7041H27.4328L30.8075 24.8035H0Z" fill="#3782CA"/>
<path d="M56.6337 20.7519C56.6334 19.4466 56.6397 18.2262 56.6311 17.0059C56.6198 15.4131 55.9982 14.8542 54.186 14.8002C53.7678 14.7877 53.3488 14.7983 52.7979 14.7983C52.7979 18.5376 52.7979 22.2331 52.7979 25.9599C50.4632 25.9599 48.2611 25.9599 46 25.9599C46 17.3177 46 8.70319 46.0009 0.0885303C46.0508 0.057597 46.1002 -0.000465001 46.1489 2.80979e-06C49.9565 0.0359563 53.7645 0.0609025 57.5713 0.131323C58.2435 0.143744 58.9237 0.308513 59.5784 0.469883C61.6849 0.989064 63.0557 2.20329 63.3867 4.07207C63.6273 5.4302 63.6874 6.8504 63.5272 8.21613C63.2605 10.4903 62.4721 11.2179 59.7472 12.3111C59.7676 12.3539 59.7757 12.4238 59.8104 12.4359C62.7317 13.4535 63.4667 14.4253 63.4884 17.1975C63.5064 19.4949 63.5444 21.7927 63.6251 24.0889C63.6465 24.6976 63.8581 25.3013 64 25.9929C61.941 25.9929 59.8702 26.0242 57.8037 25.9557C57.5266 25.9465 57.0805 25.4537 57.0387 25.1507C56.8416 23.7192 56.7578 22.276 56.6337 20.7519ZM53.6006 10.3726C56.3637 10.371 56.7837 10.0011 56.8002 7.55423C56.8006 7.49754 56.8017 7.44085 56.8019 7.38416C56.8083 4.70659 56.294 4.27473 53.2212 4.38229C53.0985 4.3866 52.9771 4.41836 52.7675 4.45096C52.7675 6.30406 52.7537 8.14113 52.7956 9.97727C52.7987 10.1127 53.2021 10.2412 53.6006 10.3726Z" fill="#031943"/>
<path d="M82 24.3653C82 24.9543 82 25.459 82 26C76.6243 26 71.3491 26 66 26C66 17.349 66 8.69341 66 0C71.1778 0 76.3511 0 81.6047 0C81.6047 1.62118 81.6047 3.24775 81.6047 4.94538C78.7609 4.94538 75.9457 4.94538 73.0698 4.94538C73.0698 6.70579 73.0698 8.39671 73.0698 10.1569C75.5233 10.1569 77.9669 10.1569 80.492 10.1569C80.492 11.8272 80.492 13.4322 80.492 15.1285C78.0818 15.1285 75.611 15.1285 73.075 15.1285C73.075 17.1315 73.075 19.0443 73.075 21.0242C76.017 21.0242 78.9318 21.0242 82 21.0242C82 22.1514 82 23.2162 82 24.3653Z" fill="#031943"/>
<path d="M95.1517 0.00814573C96.3982 0.150101 97.5638 0.219882 98.6866 0.430575C101.3 0.920938 102.905 2.25435 103.491 4.29964C104.17 6.66921 104.176 9.05665 103.472 11.4228C102.72 13.9495 100.476 15.4798 97.1885 15.6498C95.352 15.7448 93.5011 15.6669 91.5811 15.6669C91.5811 19.1773 91.5811 22.5609 91.5811 26C89.0248 26 86.5445 26 84 26C84 17.3276 84 8.67806 84 0C87.6826 0 91.3671 -9.87978e-08 95.1517 0.00814573ZM91.5515 10.4236C91.5725 10.6413 91.5934 10.859 91.613 11.0625C92.5236 11.0625 93.3566 11.0865 94.1864 11.0565C95.2726 11.0174 96.0392 10.5363 96.1167 9.71112C96.2329 8.47326 96.2153 7.21824 96.098 5.97967C96.0239 5.19822 95.3008 4.68782 94.2908 4.60809C93.4095 4.53854 92.5122 4.59358 91.5516 4.59358C91.5516 6.50647 91.5516 8.38086 91.5515 10.4236Z" fill="#041A43"/>
<path d="M129.174 16.3009C128.581 19.338 127.976 22.2988 127.435 25.268C127.328 25.8498 127.081 26.0261 126.42 25.997C125.456 25.9545 124.485 25.9551 123.521 25.9971C122.885 26.0249 122.678 25.8308 122.577 25.2989C121.605 20.1486 120.598 15.0031 119.598 9.85663C119.387 8.77066 119.166 7.68612 118.79 6.60489C118.79 13.0256 118.79 19.4464 118.79 25.9262C116.459 25.9262 114.251 25.9262 112 25.9262C112 17.2703 112 8.65914 112 0.00287899C115.67 0.00287899 119.286 0.00287899 122.987 0.00287899C123.624 4.13167 124.257 8.23683 124.89 12.342C124.965 12.3424 125.039 12.3429 125.114 12.3433C125.746 8.23966 126.379 4.13599 127.017 0C130.709 0 134.326 0 138 0C138 8.65346 138 17.2648 138 25.9311C135.785 25.9311 133.6 25.9311 131.291 25.9311C131.291 19.4844 131.291 13.032 131.291 6.57968C131.212 6.57425 131.132 6.56885 131.053 6.56342C130.43 9.78475 129.806 13.0061 129.174 16.3009Z" fill="#3882CB"/>
<path d="M140 22.1572C140 14.7332 140 7.39468 140 0C145.237 0 150.391 0 155.593 0C155.593 1.63806 155.593 3.24325 155.593 4.9283C152.747 4.9283 149.956 4.9283 147.101 4.9283C147.101 6.69672 147.101 8.38588 147.101 10.158C149.548 10.158 151.972 10.158 154.485 10.158C154.485 11.8408 154.485 13.4429 154.485 15.1447C152.047 15.1447 149.599 15.1447 147.093 15.1447C147.093 17.1338 147.093 19.0245 147.093 21.0227C148.983 21.0227 150.841 21.0227 152.698 21.0227C153.567 21.0226 154.438 20.9929 155.302 21.0416C155.543 21.0552 155.961 21.2962 155.966 21.4407C156.015 22.9411 155.996 24.4431 155.996 26C150.633 26 145.378 26 140 26C140 24.7282 140 23.4854 140 22.1572Z" fill="#3882CB"/>
<path d="M158 15.1373C158 10.074 158 5.09578 158 0.0634562C158.333 0.0397859 158.586 0.00648556 158.839 0.00620537C162.05 0.00272898 165.262 -0.00905944 168.473 0.013376C169.262 0.0188863 170.062 0.090634 170.838 0.216665C173.71 0.683066 175.493 2.4507 175.83 5.15636C175.931 5.97074 175.985 6.79322 175.989 7.61218C176.005 11.4351 176.001 15.2581 175.994 19.0811C175.987 23.4757 173.047 25.9885 167.909 25.9972C164.962 26.0022 162.016 25.9995 159.069 25.9968C158.748 25.9966 158.426 25.9741 158 25.958C158 22.3425 158 18.7824 158 15.1373ZM164.948 13.6921C164.948 16.3073 164.948 18.9224 164.948 21.5231C168.138 21.7542 169.03 21.0602 169.03 18.4902C169.03 14.7004 169.033 10.9105 169.029 7.12068C169.026 4.91227 167.554 3.96699 164.948 4.56125C164.948 7.53556 164.948 10.5289 164.948 13.6921Z" fill="#3882CB"/>
<path d="M184 25.0306C184 25.3897 184 25.6677 184 26C181.967 26 180.018 26 178 26C178 17.3483 178 8.70621 178 0C179.953 0 181.926 0 184 0C184 8.33213 184 16.6407 184 25.0306Z" fill="#3882CC"/>
<path d="M186.429 23.7874C187.972 16.0879 189.512 8.46196 191.019 0.830516C191.141 0.213315 191.349 -0.0131944 192.061 0.00058951C194.394 0.0456984 196.728 0.0232789 199.062 0.012422C199.502 0.0103773 199.8 0.0465288 199.901 0.550324C201.59 8.95706 203.298 17.3605 204.998 25.7653C205.008 25.8138 204.969 25.8709 204.942 25.9576C202.753 25.9576 200.554 25.9576 198.282 25.9576C198.069 24.4493 197.861 22.9723 197.636 21.3807C196.244 21.3807 194.873 21.3643 193.505 21.4036C193.351 21.408 193.111 21.714 193.077 21.9053C192.869 23.0782 192.727 24.2614 192.513 25.4333C192.475 25.6405 192.202 25.9698 192.031 25.9732C190.072 26.0114 188.112 25.9975 186 25.9975C186.151 25.224 186.284 24.5418 186.429 23.7874ZM195.141 6.08095C194.69 9.61204 194.239 13.1431 193.781 16.7324C194.877 16.7324 195.874 16.7324 197.011 16.7324C196.523 12.5846 196.041 8.48656 195.559 4.38856C195.5 4.38775 195.441 4.38694 195.383 4.38611C195.307 4.90068 195.231 5.41525 195.141 6.08095Z" fill="#3882CC"/>
</svg>
