<svg width="1440" height="913" viewBox="0 0 1440 913" fill="none" xmlns="http://www.w3.org/2000/svg">
<path d="M1335.75 -125.057C1322.15 -120.524 1308.55 -114.48 1296.46 -108.436C1276.82 -97.859 1258.69 -87.282 1242.07 -73.683C1225.45 -87.282 1207.32 -99.37 1187.67 -108.436C1172.56 -143.189 1163.5 -179.453 1163.5 -220.25C1163.5 -261.047 1172.56 -297.311 1187.67 -332.064C1196.74 -351.707 1207.32 -369.839 1220.91 -386.46C1222.43 -389.482 1225.45 -392.504 1228.47 -395.526C1233 -400.059 1237.53 -404.592 1242.07 -409.125L1243.58 -410.636C1248.11 -415.169 1252.64 -419.702 1257.18 -424.235C1260.2 -427.257 1263.22 -428.768 1266.24 -431.79C1282.86 -445.389 1300.99 -455.966 1320.64 -465.032C1355.39 -480.142 1391.65 -489.208 1432.45 -489.208V-519.428C1399.2 -519.428 1367.48 -513.384 1337.26 -504.318C1322.15 -498.274 1310.06 -492.23 1296.46 -486.186C1276.82 -475.609 1258.69 -465.032 1242.07 -451.433C1225.45 -465.032 1207.32 -477.12 1187.67 -486.186C1172.56 -520.939 1163.5 -557.203 1163.5 -598H1133.28C1133.28 -564.758 1139.32 -533.027 1148.39 -502.807C1118.17 -513.384 1086.44 -517.917 1053.2 -517.917C1019.96 -517.917 988.231 -511.873 958.012 -502.807C944.413 -498.274 932.326 -492.23 918.728 -486.186C899.085 -475.609 880.954 -465.032 864.334 -451.433C847.714 -465.032 829.583 -477.12 809.94 -486.186C794.831 -520.939 785.765 -557.203 785.765 -598H755.547C755.547 -564.758 761.59 -533.027 770.656 -502.807C740.437 -513.384 708.708 -517.917 675.467 -517.917C642.227 -517.917 610.497 -511.873 580.278 -502.807C566.68 -498.274 554.592 -492.23 540.994 -486.186C521.352 -475.609 503.221 -465.032 486.6 -451.433C469.98 -465.032 451.849 -477.12 432.207 -486.186C417.097 -520.939 408.032 -557.203 408.032 -598H377.813C377.813 -564.758 383.857 -533.027 392.922 -502.807C362.704 -513.384 330.974 -517.917 297.734 -517.917C264.493 -517.917 232.763 -511.873 202.545 -502.807C188.946 -498.274 176.859 -492.23 163.26 -486.186C143.618 -475.609 125.487 -465.032 108.867 -451.433C92.2465 -465.032 74.1153 -477.12 54.4732 -486.186C37.8529 -520.939 30.2982 -558.714 30.2982 -598H0.0795288C0.0795288 -564.758 6.12326 -533.027 15.1889 -502.807C-15.0298 -513.384 -46.7594 -517.917 -80 -517.917V-487.697C-40.7157 -487.697 -2.94234 -478.631 31.8092 -463.521C51.4513 -454.455 69.5825 -443.878 86.2028 -430.279C80.159 -424.235 72.6044 -416.68 66.5606 -409.125C52.9622 -392.504 40.8748 -374.372 31.8092 -354.729C25.7654 -341.13 19.7217 -329.042 15.1889 -315.443C4.61233 -285.223 0.0795288 -253.492 0.0795288 -220.25C0.0795288 -187.008 6.12326 -155.277 15.1889 -125.057C-15.0298 -135.634 -46.7594 -140.167 -80 -140.167V-109.947C-40.7157 -109.947 -2.94234 -100.881 31.8092 -85.771C51.4513 -76.705 69.5825 -66.1281 86.2028 -52.5291C80.159 -46.485 72.6044 -38.93 66.5606 -31.375C52.9622 -14.754 40.8748 3.37793 31.8092 23.0209C25.7654 36.6199 19.7217 48.708 15.1889 62.307C4.61233 92.527 0.0795288 124.258 0.0795288 157.5C0.0795288 190.742 6.12326 222.473 15.1889 252.693C-15.0298 242.116 -46.7594 237.583 -80 237.583V267.803C-40.7157 267.803 -2.94234 276.869 31.8092 291.979C51.4513 301.045 69.5825 311.622 86.2028 325.221C80.159 331.265 72.6044 338.82 66.5606 346.375C52.9622 362.996 40.8748 381.128 31.8092 400.771C25.7654 414.37 19.7217 426.458 15.1889 440.057C4.61233 470.277 0.0795288 502.008 0.0795288 535.25C0.0795288 568.492 6.12326 600.223 15.1889 630.443C-15.0298 619.866 -46.7594 615.333 -80 615.333V645.553C-40.7157 645.553 -2.94234 654.619 31.8092 669.729C51.4513 678.795 69.5825 689.372 86.2028 702.971C80.159 709.015 72.6044 716.57 66.5606 724.125C52.9622 740.746 40.8748 758.878 31.8092 778.521C25.7654 792.12 19.7217 804.208 15.1889 817.807C4.61233 848.027 0.0795288 879.758 0.0795288 913H30.2982C30.2982 873.714 39.3638 835.939 54.4732 801.186C63.5388 781.543 74.1153 763.411 87.7137 746.79C89.2247 743.768 92.2465 740.746 95.2684 737.724C99.8012 733.191 104.334 728.658 108.867 724.125L110.378 722.614C114.911 718.081 119.443 713.548 123.976 709.015C126.998 705.993 130.02 704.482 133.042 701.46C149.662 687.861 167.793 677.284 187.435 668.218C222.187 653.108 258.449 644.042 299.245 644.042C340.04 644.042 376.302 653.108 411.054 668.218C430.696 677.284 448.827 687.861 465.447 701.46C459.404 707.504 451.849 715.059 445.805 722.614C432.207 739.235 420.119 757.367 411.054 777.01C405.01 789.098 398.966 802.697 394.433 816.296C383.857 846.516 379.324 878.247 379.324 911.489H409.543C409.543 872.203 418.608 834.428 433.718 799.675C442.783 780.032 453.36 761.9 466.958 745.279C468.469 742.257 471.491 739.235 474.513 736.213C479.046 731.68 483.578 727.147 488.111 722.614L489.622 721.103C494.155 716.57 498.688 712.037 503.221 707.504C506.242 704.482 509.264 702.971 512.286 699.949C528.907 686.35 547.038 675.773 566.68 666.707C601.431 651.597 637.694 642.531 678.489 642.531C717.773 642.531 755.547 651.597 790.298 666.707C809.94 675.773 828.072 686.35 844.692 699.949C838.648 705.993 831.093 713.548 825.05 721.103C811.451 737.724 799.364 755.856 790.298 775.499C784.254 787.587 778.211 801.186 773.678 814.785C763.101 845.005 758.569 876.736 758.569 909.978H788.787C788.787 870.692 797.853 832.917 812.962 798.164C822.028 778.521 832.604 760.389 846.203 743.768C847.714 740.746 850.736 737.724 853.757 734.702C858.29 730.169 862.823 725.636 867.356 721.103L868.867 719.592C873.4 715.059 877.932 710.526 882.465 705.993C885.487 702.971 888.509 701.46 891.531 698.438C908.151 684.839 926.282 674.262 945.924 665.196C980.676 650.086 1016.94 641.02 1057.73 641.02C1097.02 641.02 1134.79 650.086 1169.54 665.196C1189.18 674.262 1207.32 684.839 1223.94 698.438C1217.89 704.482 1210.34 712.037 1204.29 719.592C1190.7 736.213 1178.61 754.345 1169.54 773.988C1163.5 786.076 1157.46 799.675 1152.92 813.274C1142.35 843.494 1137.81 875.225 1137.81 908.467H1168.03C1168.03 869.181 1177.1 831.406 1192.21 796.653C1201.27 777.01 1211.85 758.878 1225.45 742.257C1226.96 739.235 1229.98 736.213 1233 733.191C1237.53 728.658 1242.07 724.125 1246.6 719.592L1248.11 718.081C1252.64 713.548 1257.18 709.015 1261.71 704.482C1264.73 701.46 1267.75 699.949 1270.78 696.927C1287.4 683.328 1305.53 672.751 1325.17 663.685C1359.92 648.575 1396.18 639.509 1436.98 639.509V609.289C1403.74 609.289 1372.01 615.333 1341.79 624.399C1328.19 628.932 1314.59 634.976 1302.51 641.02C1282.86 651.597 1264.73 662.174 1248.11 675.773C1231.49 662.174 1213.36 650.086 1193.72 641.02C1178.61 606.267 1169.54 570.003 1169.54 529.206C1169.54 489.92 1178.61 452.145 1193.72 417.392C1202.78 397.749 1213.36 379.617 1226.96 362.996C1228.47 359.974 1231.49 356.952 1234.51 353.93C1239.05 349.397 1243.58 344.864 1248.11 340.331L1249.62 338.82C1254.16 334.287 1258.69 329.754 1263.22 325.221C1266.24 322.199 1269.26 320.688 1272.29 317.666C1288.91 304.067 1307.04 293.49 1326.68 284.424C1361.43 269.314 1397.69 260.248 1438.49 260.248V230.028C1405.25 230.028 1373.52 236.072 1343.3 245.138C1329.7 249.671 1316.1 255.715 1304.02 261.759C1284.37 272.336 1266.24 282.913 1249.62 296.512C1233 282.913 1214.87 270.825 1195.23 261.759C1180.12 227.006 1171.05 190.742 1171.05 149.945C1171.05 110.659 1180.12 72.884 1195.23 38.131C1204.29 18.488 1214.87 0.355957 1228.47 -16.265C1229.98 -19.287 1233 -22.309 1236.02 -25.331C1240.56 -29.864 1245.09 -34.397 1249.62 -38.93L1251.13 -40.441C1255.67 -44.974 1260.2 -49.507 1264.73 -54.04C1267.75 -57.062 1270.78 -58.573 1273.8 -61.595C1290.42 -75.194 1308.55 -85.771 1328.19 -94.837C1362.94 -109.947 1399.2 -119.013 1440 -119.013V-149.233C1397.69 -140.167 1365.96 -135.634 1335.75 -125.057ZM850.736 -395.526C855.268 -400.059 859.801 -404.592 864.334 -409.125L865.845 -410.636C870.378 -415.169 874.911 -419.702 879.443 -424.235C882.465 -427.257 885.487 -428.768 888.509 -431.79C905.129 -445.389 923.26 -455.966 942.903 -465.032C977.654 -480.142 1013.92 -489.208 1054.71 -489.208C1095.51 -489.208 1131.77 -480.142 1166.52 -465.032C1186.16 -455.966 1204.29 -445.389 1220.91 -431.79C1214.87 -425.746 1207.32 -418.191 1201.27 -410.636C1187.67 -394.015 1175.59 -375.883 1166.52 -356.24C1160.48 -344.152 1154.43 -330.553 1149.9 -316.954C1139.32 -286.734 1134.79 -255.003 1134.79 -221.761C1134.79 -188.519 1140.83 -156.788 1149.9 -126.568C1119.68 -137.145 1087.95 -141.678 1054.71 -141.678C1021.47 -141.678 989.742 -135.634 959.523 -126.568C945.924 -122.035 932.326 -115.991 920.239 -109.947C900.596 -99.37 882.465 -88.793 865.845 -75.194C849.225 -88.793 831.093 -100.881 811.451 -109.947C796.342 -144.7 787.276 -180.964 787.276 -221.761C787.276 -262.558 796.342 -298.822 811.451 -333.575C820.517 -353.218 831.094 -371.35 844.692 -387.971C844.692 -389.482 847.714 -392.504 850.736 -395.526ZM770.656 252.693C740.437 242.116 708.708 237.583 675.467 237.583C642.227 237.583 610.497 243.627 580.278 252.693C566.68 257.226 553.081 263.27 540.994 269.314C521.352 279.891 503.221 290.468 486.6 304.067C469.98 290.468 451.849 278.38 432.207 269.314C417.097 234.561 408.032 198.297 408.032 157.5C408.032 118.214 417.097 80.439 432.207 45.686C441.272 26.043 451.849 7.91101 465.447 -8.71002C466.958 -11.732 469.98 -14.754 473.002 -17.776C477.535 -22.309 482.068 -26.842 486.6 -32.886L488.111 -34.397C492.644 -38.9301 497.177 -43.463 503.221 -47.996C506.242 -51.018 509.264 -52.529 512.286 -55.551C528.907 -69.15 547.038 -79.727 566.68 -88.793C601.431 -103.903 637.694 -112.969 678.489 -112.969C717.773 -112.969 755.547 -103.903 790.298 -88.793C809.94 -79.727 828.072 -69.15 844.692 -55.551C838.648 -49.507 831.093 -41.952 825.05 -34.397C811.451 -17.776 799.364 0.356018 790.298 19.999C784.254 32.087 778.211 45.686 773.678 59.285C763.101 89.5049 758.569 121.236 758.569 154.478C758.569 187.72 760.08 222.473 770.656 252.693ZM471.491 -394.015C476.024 -398.548 480.557 -403.081 485.089 -409.125L486.6 -410.636C491.133 -415.169 495.666 -419.702 501.71 -424.235C504.732 -427.257 507.753 -428.768 510.775 -431.79C527.396 -445.389 545.527 -455.966 565.169 -465.032C599.92 -480.142 636.183 -489.208 676.978 -489.208C716.262 -489.208 754.036 -480.142 788.787 -465.032C808.429 -455.966 826.561 -445.389 843.181 -431.79C837.137 -425.746 829.582 -418.191 823.539 -410.636C809.94 -394.015 797.853 -375.883 788.787 -356.24C782.744 -344.152 776.7 -330.553 772.167 -316.954C761.59 -286.734 757.058 -255.003 757.058 -221.761C757.058 -188.519 763.101 -156.788 772.167 -126.568C741.948 -137.145 710.219 -141.678 676.978 -141.678C643.738 -141.678 612.008 -135.634 581.789 -126.568C568.191 -122.035 554.592 -115.991 542.505 -109.947C522.863 -99.37 504.732 -88.793 488.111 -75.194C471.491 -88.793 453.36 -100.881 433.718 -109.947C418.608 -144.7 409.543 -180.964 409.543 -221.761C409.543 -262.558 418.608 -298.822 433.718 -333.575C442.783 -353.218 453.36 -371.35 466.958 -387.971C466.958 -389.482 469.98 -392.504 471.491 -394.015ZM54.4732 -108.436C39.3638 -143.189 30.2982 -179.453 30.2982 -220.25C30.2982 -261.047 39.3638 -297.311 54.4732 -332.064C63.5388 -351.707 74.1153 -369.839 87.7137 -386.46C89.2247 -389.482 92.2465 -392.504 95.2684 -395.526C99.8012 -400.059 104.334 -404.592 108.867 -410.636L110.378 -412.147C114.911 -416.68 119.443 -421.213 125.487 -425.746C128.509 -428.768 131.531 -430.279 134.553 -433.301C151.173 -446.9 169.304 -457.477 188.946 -466.543C223.698 -481.653 259.96 -490.719 300.755 -490.719C341.551 -490.719 377.813 -481.653 412.565 -466.543C432.207 -457.477 450.338 -446.9 466.958 -433.301C460.915 -427.257 453.36 -419.702 447.316 -412.147C433.718 -395.526 421.63 -377.394 412.565 -357.751C406.521 -345.663 400.477 -332.064 395.944 -318.465C385.368 -288.245 380.835 -256.514 380.835 -223.272C380.835 -190.03 386.879 -158.299 395.944 -128.079C365.726 -138.656 333.996 -143.189 300.755 -143.189C267.515 -143.189 235.785 -137.145 205.567 -128.079C191.968 -123.546 178.37 -117.502 166.282 -111.458C146.64 -100.881 128.509 -90.304 111.889 -76.705C92.2465 -87.282 74.1153 -99.37 54.4732 -108.436ZM54.4732 269.314C39.3638 234.561 30.2982 198.297 30.2982 157.5C30.2982 118.214 39.3638 80.439 54.4732 45.686C63.5388 26.043 74.1153 7.91101 87.7137 -8.71002C89.2247 -11.732 92.2465 -14.754 95.2684 -17.776C99.8012 -22.309 104.334 -26.842 108.867 -32.886L110.378 -34.397C114.911 -38.9301 119.443 -43.463 125.487 -47.996C128.509 -51.018 131.531 -52.529 134.553 -55.551C151.173 -69.15 169.304 -79.727 188.946 -88.793C223.698 -103.903 259.96 -112.969 300.755 -112.969C341.551 -112.969 377.813 -103.903 412.565 -88.793C432.207 -79.727 450.338 -69.15 466.958 -55.551C460.915 -49.507 453.36 -41.952 447.316 -34.397C433.718 -17.776 421.63 0.356018 412.565 19.999C406.521 32.087 400.477 45.686 395.944 59.285C385.368 89.5049 380.835 121.236 380.835 154.478C380.835 187.72 386.879 219.451 395.944 249.671C365.726 239.094 333.996 234.561 300.755 234.561C267.515 234.561 235.785 240.605 205.567 249.671C191.968 254.204 178.37 260.248 166.282 266.292C146.64 276.869 128.509 287.446 111.889 301.045C92.2465 290.468 74.1153 278.38 54.4732 269.314ZM392.922 630.443C362.704 619.866 330.974 615.333 297.734 615.333C264.493 615.333 232.763 621.377 202.545 630.443C188.946 634.976 175.348 641.02 163.26 647.064C143.618 657.641 125.487 668.218 108.867 681.817C92.2465 668.218 74.1153 656.13 54.4732 647.064C39.3638 612.311 30.2982 576.047 30.2982 535.25C30.2982 494.453 39.3638 458.189 54.4732 423.436C63.5388 403.793 74.1153 385.661 87.7137 369.04C89.2247 366.018 92.2465 362.996 95.2684 359.974C99.8012 355.441 104.334 350.908 108.867 346.375L110.378 344.864C114.911 340.331 119.443 335.798 123.976 331.265C126.998 328.243 130.02 326.732 133.042 323.71C149.662 310.111 167.793 299.534 187.435 290.468C222.187 275.358 258.449 266.292 299.245 266.292C340.04 266.292 376.302 275.358 411.054 290.468C430.696 299.534 448.827 310.111 465.447 323.71C459.404 329.754 451.849 337.309 445.805 344.864C432.207 361.485 420.119 379.617 411.054 399.26C405.01 411.348 398.966 424.947 394.433 438.546C383.857 468.766 379.324 500.497 379.324 533.739C379.324 566.981 382.346 600.223 392.922 630.443ZM770.656 630.443C740.437 619.866 708.708 615.333 675.467 615.333C642.227 615.333 610.497 621.377 580.278 630.443C566.68 634.976 553.081 641.02 540.994 647.064C521.352 657.641 503.221 668.218 486.6 681.817C469.98 668.218 451.849 656.13 432.207 647.064C417.097 612.311 408.032 576.047 408.032 535.25C408.032 494.453 417.097 458.189 432.207 423.436C441.272 403.793 451.849 385.661 465.447 369.04C466.958 366.018 469.98 362.996 473.002 359.974C477.535 355.441 482.068 350.908 486.6 346.375L488.111 344.864C492.644 340.331 497.177 335.798 501.71 331.265C504.732 328.243 507.753 326.732 510.775 323.71C527.396 310.111 545.527 299.534 565.169 290.468C599.92 275.358 636.183 266.292 676.978 266.292C716.262 266.292 754.036 275.358 788.787 290.468C808.429 299.534 826.561 310.111 843.181 323.71C837.137 329.754 829.582 337.309 823.539 344.864C809.94 361.485 797.853 379.617 788.787 399.26C782.744 411.348 776.7 424.947 772.167 438.546C761.59 468.766 757.058 500.497 757.058 533.739C757.058 566.981 760.08 600.223 770.656 630.443ZM1165.01 291.979C1184.65 301.045 1202.78 311.622 1219.4 325.221C1213.36 331.265 1205.81 338.82 1199.76 346.375C1186.16 362.996 1174.08 381.128 1165.01 400.771C1158.97 412.859 1152.92 426.458 1148.39 440.057C1137.81 470.277 1133.28 502.008 1133.28 535.25C1133.28 568.492 1139.32 600.223 1148.39 630.443C1118.17 619.866 1086.44 615.333 1053.2 615.333C1019.96 615.333 988.231 621.377 958.012 630.443C944.413 634.976 930.815 641.02 918.728 647.064C899.085 657.641 880.954 668.218 864.334 681.817C847.714 668.218 829.583 656.13 809.94 647.064C794.831 612.311 785.765 576.047 785.765 535.25C785.765 495.964 794.831 458.189 809.94 423.436C819.006 403.793 829.582 385.661 843.181 369.04C844.692 366.018 847.714 362.996 850.736 359.974C855.268 355.441 859.801 350.908 864.334 346.375L865.845 344.864C870.378 340.331 874.911 335.798 879.443 331.265C882.465 328.243 885.487 326.732 888.509 323.71C905.129 310.111 923.26 299.534 942.903 290.468C977.654 275.358 1013.92 266.292 1054.71 266.292C1092.49 267.803 1130.26 275.358 1165.01 291.979ZM1199.76 -31.375C1186.16 -14.754 1174.08 3.37793 1165.01 23.0209C1158.97 35.1089 1152.92 48.708 1148.39 62.307C1137.81 92.527 1133.28 124.258 1133.28 157.5C1133.28 190.742 1139.32 222.473 1148.39 252.693C1118.17 242.116 1086.44 237.583 1053.2 237.583C1019.96 237.583 988.231 243.627 958.012 252.693C944.413 257.226 930.815 263.27 918.728 269.314C899.085 279.891 880.954 290.468 864.334 304.067C847.714 290.468 829.583 278.38 809.94 269.314C794.831 234.561 785.765 198.297 785.765 157.5C785.765 118.214 794.831 80.439 809.94 45.686C819.006 26.043 829.582 7.91101 843.181 -8.71002C844.692 -11.732 847.714 -14.754 850.736 -17.776C855.268 -22.309 859.801 -26.842 864.334 -31.375L865.845 -32.886C870.378 -37.419 874.911 -41.952 879.443 -46.485C882.465 -49.507 885.487 -51.018 888.509 -54.04C905.129 -67.639 923.26 -78.216 942.903 -87.282C977.654 -102.392 1013.92 -111.458 1054.71 -111.458C1095.51 -111.458 1131.77 -102.392 1166.52 -87.282C1186.16 -78.216 1204.29 -67.639 1220.91 -54.04C1211.85 -46.485 1205.81 -38.93 1199.76 -31.375Z" fill="black" fill-opacity="0.01"/>
</svg>
