<svg width="20" height="20" viewBox="0 0 20 20" fill="none" xmlns="http://www.w3.org/2000/svg">
<path fill-rule="evenodd" clip-rule="evenodd" d="M19.5188 3.49375C19.2781 2.89375 18.9156 2.29063 18.3125 1.6875C17.7125 1.08438 17.2281 0.84375 16.5063 0.48125C15.9031 0.240625 15.1813 0.11875 14.0938 0H5.9C4.81875 0 4.09375 0.240625 3.49062 0.48125C2.8875 0.721875 2.2875 1.08438 1.68437 1.6875C1.08437 2.2875 0.840623 2.77188 0.481248 3.49375C0.240623 4.09688 0.11875 4.81875 0 5.90625V14.1C0 15.1812 0.240623 15.9063 0.481248 16.5094C0.721873 17.1094 1.08437 17.7125 1.68437 18.3156C2.2875 18.9156 2.76875 19.1594 3.49062 19.5188C4.09375 19.7594 4.81563 19.8813 5.9 20H14.0938C15.1781 20 15.9 19.7594 16.5063 19.5188C17.1063 19.2781 17.7094 18.9156 18.3125 18.3156C18.9156 17.7125 19.1563 17.2313 19.5188 16.5094C19.7594 15.9063 19.8781 15.1844 20 14.1V5.90625C20 4.82188 19.7594 4.09688 19.5188 3.49375ZM18.1938 14.1C18.1938 14.9125 18.0219 15.3844 17.8937 15.7281C17.8719 15.7906 17.85 15.85 17.8312 15.9062C17.7812 16.0063 17.7344 16.1031 17.6937 16.1938C17.5312 16.5406 17.3969 16.825 17.1094 17.1094C16.7469 17.4719 16.3875 17.7125 15.9062 17.8313C15.5437 17.9531 15.0625 18.0719 14.1 18.1938H5.90625C5.09062 18.1938 4.62188 18.0219 4.27813 17.8969C4.21563 17.8719 4.15625 17.85 4.1 17.8313C4 17.7812 3.90312 17.7375 3.8125 17.6938C3.46562 17.5281 3.18125 17.3938 2.89375 17.1063C2.53437 16.7469 2.29375 16.3844 2.17187 15.9031C2.05 15.5406 1.93125 15.0594 1.80937 14.0969V5.90625C1.80937 5.09375 1.98125 4.62188 2.10625 4.275C2.13125 4.2125 2.15312 4.15313 2.17187 4.09688C2.22187 3.99688 2.26562 3.9 2.30937 3.80938C2.475 3.46563 2.60937 3.17813 2.89375 2.89375C3.25625 2.53125 3.61562 2.29063 4.1 2.17188C4.4625 2.05313 4.94375 1.93125 5.90625 1.80938H14.1C14.9156 1.80938 15.3844 1.98125 15.7312 2.10937C15.7937 2.13125 15.8531 2.15313 15.9094 2.17188C16.0094 2.22188 16.1063 2.26875 16.1969 2.30938C16.5406 2.47187 16.8281 2.60625 17.1125 2.89375C17.475 3.25625 17.7156 3.61563 17.8344 4.09688C17.9531 4.45938 18.075 4.94063 18.1969 5.90313V14.1H18.1938Z" fill="white"/>
<path fill-rule="evenodd" clip-rule="evenodd" d="M9.9999 4.82178C7.10928 4.82178 4.82178 7.10928 4.82178 10.003C4.82178 12.8937 7.10928 15.1812 9.9999 15.1812C12.8937 15.1812 15.1812 12.8937 15.1812 10.003C15.1812 7.10928 12.8905 4.82178 9.9999 4.82178ZM9.9999 13.3749C8.19365 13.3749 6.6249 11.928 6.6249 9.9999C6.6249 8.19365 8.07178 6.6249 9.9999 6.6249C11.8062 6.6249 13.3749 8.07178 13.3749 9.9999C13.3718 11.8062 11.8062 13.3749 9.9999 13.3749Z" fill="white"/>
<path fill-rule="evenodd" clip-rule="evenodd" d="M16.5061 4.6999C16.5061 5.36553 15.9654 5.90303 15.2998 5.90303C14.6342 5.90303 14.0967 5.36553 14.0967 4.6999C14.0967 4.03428 14.6342 3.49365 15.2998 3.49365C15.9654 3.49365 16.5061 4.03428 16.5061 4.6999Z" fill="white"/>
</svg>
