<svg width="20" height="20" viewBox="0 0 20 20" fill="none" xmlns="http://www.w3.org/2000/svg">
<path fill-rule="evenodd" clip-rule="evenodd" d="M19.75 11.75V20H15.75V12.75C15.75 10.625 14.875 10 13.625 10C12.375 10 11.125 11 11.125 12.875V20H6.875V6.625H10.875V8.5C11.25 7.625 12.75 6.25 14.875 6.25C17.25 6.25 19.75 7.625 19.75 11.75ZM2.375 0C1.125 0 0 1 0 2.375C0 3.75 1 4.75 2.375 4.75C3.75 4.75 4.75 3.75 4.75 2.375C4.75 1 3.75 0 2.375 0ZM0.250006 6.625V20H4.5V6.625H0.250006Z" fill="white"/>
</svg>
