<svg width="40" height="40" viewBox="0 0 40 40" fill="none" xmlns="http://www.w3.org/2000/svg">
<path fill-rule="evenodd" clip-rule="evenodd" d="M19.9997 3.33325C26.4497 3.33325 31.6663 8.54992 31.6663 14.9999C31.6663 23.7499 19.9997 36.6666 19.9997 36.6666C19.9997 36.6666 8.33301 23.7499 8.33301 14.9999C8.33301 8.54992 13.5497 3.33325 19.9997 3.33325ZM11.6663 14.9999C11.6663 19.7499 16.533 27.0166 19.9997 31.4666C23.533 26.9833 28.333 19.7999 28.333 14.9999C28.333 10.3999 24.5997 6.66659 19.9997 6.66659C15.3997 6.66659 11.6663 10.3999 11.6663 14.9999ZM19.9997 19.1666C17.6985 19.1666 15.833 17.3011 15.833 14.9999C15.833 12.6987 17.6985 10.8333 19.9997 10.8333C22.3009 10.8333 24.1663 12.6987 24.1663 14.9999C24.1663 17.3011 22.3009 19.1666 19.9997 19.1666Z" fill="white"/>
</svg>
