<svg width="52" height="52" viewBox="0 0 52 52" fill="none" xmlns="http://www.w3.org/2000/svg">
<path d="M6.5 13C6.5 12.569 6.67121 12.1557 6.97595 11.851C7.2807 11.5462 7.69402 11.375 8.125 11.375H43.875C44.306 11.375 44.7193 11.5462 45.024 11.851C45.3288 12.1557 45.5 12.569 45.5 13C45.5 13.431 45.3288 13.8443 45.024 14.149C44.7193 14.4538 44.306 14.625 43.875 14.625H8.125C7.69402 14.625 7.2807 14.4538 6.97595 14.149C6.67121 13.8443 6.5 13.431 6.5 13ZM8.125 27.625H22.75C23.181 27.625 23.5943 27.4538 23.899 27.149C24.2038 26.8443 24.375 26.431 24.375 26C24.375 25.569 24.2038 25.1557 23.899 24.851C23.5943 24.5462 23.181 24.375 22.75 24.375H8.125C7.69402 24.375 7.2807 24.5462 6.97595 24.851C6.67121 25.1557 6.5 25.569 6.5 26C6.5 26.431 6.67121 26.8443 6.97595 27.149C7.2807 27.4538 7.69402 27.625 8.125 27.625ZM26 37.375H8.125C7.69402 37.375 7.2807 37.5462 6.97595 37.851C6.67121 38.1557 6.5 38.569 6.5 39C6.5 39.431 6.67121 39.8443 6.97595 40.149C7.2807 40.4538 7.69402 40.625 8.125 40.625H26C26.431 40.625 26.8443 40.4538 27.149 40.149C27.4538 39.8443 27.625 39.431 27.625 39C27.625 38.569 27.4538 38.1557 27.149 37.851C26.8443 37.5462 26.431 37.375 26 37.375ZM48.2747 40.1497C48.1238 40.3008 47.9445 40.4206 47.7473 40.5024C47.55 40.5842 47.3386 40.6263 47.125 40.6263C46.9114 40.6263 46.7 40.5842 46.5027 40.5024C46.3055 40.4206 46.1262 40.3008 45.9753 40.1497L41.8438 36.0263C40.1636 37.1348 38.1317 37.5801 36.1419 37.2761C34.1521 36.972 32.346 35.9401 31.0736 34.3804C29.8011 32.8206 29.153 30.8441 29.2547 28.8338C29.3564 26.8234 30.2007 24.9224 31.6241 23.4991C33.0474 22.0757 34.9484 21.2314 36.9588 21.1297C38.9691 21.028 40.9456 21.6761 42.5054 22.9486C44.0651 24.221 45.097 26.0271 45.4011 28.0169C45.7051 30.0067 45.2598 32.0386 44.1512 33.7188L48.2747 37.8422C48.427 37.9933 48.5479 38.173 48.6304 38.371C48.7129 38.569 48.7554 38.7814 48.7554 38.9959C48.7554 39.2105 48.7129 39.4229 48.6304 39.6209C48.5479 39.8189 48.427 39.9986 48.2747 40.1497ZM37.375 34.125C38.3392 34.125 39.2817 33.8391 40.0834 33.3034C40.8851 32.7677 41.5099 32.0064 41.8789 31.1156C42.2479 30.2248 42.3444 29.2446 42.1563 28.2989C41.9682 27.3533 41.5039 26.4846 40.8221 25.8029C40.1404 25.1211 39.2717 24.6568 38.3261 24.4687C37.3804 24.2806 36.4002 24.3771 35.5094 24.7461C34.6186 25.1151 33.8573 25.7399 33.3216 26.5416C32.7859 27.3433 32.5 28.2858 32.5 29.25C32.5 30.5429 33.0136 31.7829 33.9279 32.6971C34.8421 33.6114 36.0821 34.125 37.375 34.125Z" fill="#4F36F5"/>
</svg>
