<svg width="60" height="60" viewBox="0 0 60 60" fill="none" xmlns="http://www.w3.org/2000/svg">
<rect width="60" height="60" rx="30" fill="white"/>
<path d="M30.199 14.3047L29.9092 14.5945L27.8181 17.5345L29.0396 17.4517C30.2611 17.3689 32.9734 17.4517 32.9734 17.4517H37.7767L40.4682 17.5552L41.9175 18.6732L42.7249 19.9362L43.5531 21.6753L43.8637 23.0832L43.6152 24.5739L43.0562 25.6298L42.2902 26.3751L41.5241 26.9134L40.6545 27.2654L39.6608 27.3689L28.5427 27.4103H19.1431L15.8926 31.1577L16.0582 31.282H17.1969H27.0313H33.0148L39.8885 31.3855L44.0707 36.7685L47.1349 40.7437L52.0003 40.5573L46.431 33.2488L43.9465 29.812C43.9465 29.812 47.4247 24.4496 47.7146 23.5801C48.0045 22.7105 47.4247 20.6815 47.4247 20.6815C47.4247 20.6815 46.0951 17.8 45.9341 17.5552C45.773 17.3104 43.491 15.4641 43.1597 15.2571C42.8285 15.05 40.551 14.3461 40.551 14.3461C40.551 14.3461 40.3026 14.3047 40.0127 14.3047H33.6152H30.344H30.199Z" fill="#021943"/>
<path d="M40.0129 20.9299H24.0915L21.0273 24.8637H37.3214L40.0129 20.9299Z" fill="#3883CB"/>
<path d="M12 39.1082L15.3955 35.0088H39.4328L42.8075 39.1082H12Z" fill="#3782CA"/>
<path d="M14.079 44.6934C14.0789 44.4452 14.0802 44.2131 14.0785 43.9811C14.0763 43.6783 13.9548 43.572 13.6005 43.5618C13.5187 43.5594 13.4368 43.5614 13.3291 43.5614C13.3291 44.2724 13.3291 44.975 13.3291 45.6836C12.8726 45.6836 12.4421 45.6836 12 45.6836C12 44.0404 12 42.4025 12.0002 40.7646C12.0099 40.7588 12.0196 40.7477 12.0291 40.7478C12.7735 40.7546 13.518 40.7594 14.2623 40.7728C14.3938 40.7751 14.5267 40.8065 14.6547 40.8371C15.0666 40.9359 15.3346 41.1667 15.3993 41.522C15.4463 41.7802 15.4581 42.0503 15.4268 42.3099C15.3746 42.7423 15.2205 42.8807 14.6877 43.0885C14.6917 43.0966 14.6933 43.1099 14.7001 43.1122C15.2712 43.3057 15.4149 43.4905 15.4192 44.0176C15.4227 44.4544 15.4301 44.8912 15.4459 45.3278C15.4501 45.4436 15.4915 45.5583 15.5192 45.6898C15.1167 45.6898 14.7118 45.6958 14.3077 45.6827C14.2536 45.681 14.1664 45.5873 14.1582 45.5297C14.1197 45.2575 14.1033 44.9831 14.079 44.6934ZM13.486 42.7199C14.0262 42.7196 14.1083 42.6493 14.1116 42.1841C14.1116 42.1733 14.1119 42.1625 14.1119 42.1518C14.1131 41.6427 14.0126 41.5606 13.4118 41.581C13.3878 41.5818 13.3641 41.5879 13.3231 41.5941C13.3231 41.9464 13.3204 42.2957 13.3286 42.6448C13.3292 42.6705 13.4081 42.695 13.486 42.7199Z" fill="#031943"/>
<path d="M19.5445 45.3745C19.5445 45.4862 19.5445 45.5819 19.5445 45.6845C18.5282 45.6845 17.5308 45.6845 16.5195 45.6845C16.5195 44.0441 16.5195 42.4028 16.5195 40.7544C17.4984 40.7544 18.4765 40.7544 19.4697 40.7544C19.4697 41.0618 19.4697 41.3702 19.4697 41.6921C18.9321 41.6921 18.3998 41.6921 17.8561 41.6921C17.8561 42.0259 17.8561 42.3466 17.8561 42.6803C18.32 42.6803 18.782 42.6803 19.2594 42.6803C19.2594 42.9971 19.2594 43.3014 19.2594 43.623C18.8037 43.623 18.3366 43.623 17.8571 43.623C17.8571 44.0028 17.8571 44.3656 17.8571 44.741C18.4133 44.741 18.9644 44.741 19.5445 44.741C19.5445 44.9547 19.5445 45.1566 19.5445 45.3745Z" fill="#031943"/>
<path d="M22.5001 40.7611C22.7188 40.7879 22.9232 40.8011 23.1202 40.841C23.5785 40.9338 23.8602 41.1861 23.963 41.5732C24.082 42.0216 24.083 42.4734 23.9596 42.9211C23.8277 43.3993 23.4341 43.6889 22.8574 43.721C22.5352 43.739 22.2106 43.7243 21.8738 43.7243C21.8738 44.3886 21.8738 45.0289 21.8738 45.6797C21.4254 45.6797 20.9903 45.6797 20.5439 45.6797C20.5439 44.0385 20.5439 42.4017 20.5439 40.7595C21.1899 40.7595 21.8362 40.7595 22.5001 40.7611ZM21.8686 42.732C21.8723 42.7733 21.8759 42.8145 21.8794 42.853C22.0391 42.853 22.1852 42.8575 22.3308 42.8518C22.5213 42.8444 22.6558 42.7534 22.6694 42.5972C22.6898 42.363 22.6867 42.1255 22.6661 41.8911C22.6531 41.7432 22.5263 41.6466 22.3491 41.6315C22.1945 41.6184 22.0371 41.6288 21.8686 41.6288C21.8686 41.9908 21.8686 42.3455 21.8686 42.732Z" fill="#041A43"/>
<path d="M28.334 43.8471C28.2208 44.4246 28.1051 44.9875 28.0017 45.5521C27.9814 45.6627 27.9341 45.6963 27.8078 45.6907C27.6236 45.6826 27.4382 45.6827 27.254 45.6907C27.1325 45.696 27.0928 45.6591 27.0736 45.558C26.8879 44.5787 26.6955 43.6003 26.5044 42.6217C26.4641 42.4152 26.4219 42.209 26.35 42.0034C26.35 43.2243 26.35 44.4452 26.35 45.6773C25.9046 45.6773 25.4828 45.6773 25.0527 45.6773C25.0527 44.0314 25.0527 42.394 25.0527 40.7481C25.7539 40.7481 26.4449 40.7481 27.152 40.7481C27.2736 41.5332 27.3946 42.3137 27.5155 43.0943C27.5298 43.0944 27.544 43.0945 27.5583 43.0946C27.6792 42.3143 27.8 41.534 27.9219 40.7476C28.6273 40.7476 29.3183 40.7476 30.0203 40.7476C30.0203 42.393 30.0203 44.0303 30.0203 45.6782C29.5972 45.6782 29.1796 45.6782 28.7385 45.6782C28.7385 44.4524 28.7385 43.2255 28.7385 41.9986C28.7233 41.9976 28.7082 41.9966 28.693 41.9956C28.574 42.6081 28.4549 43.2206 28.334 43.8471Z" fill="#3882CB"/>
<path d="M31.0195 44.9542C31.0195 43.5478 31.0195 42.1577 31.0195 40.7568C32.0174 40.7568 32.9995 40.7568 33.9907 40.7568C33.9907 41.0671 33.9907 41.3712 33.9907 41.6904C33.4484 41.6904 32.9166 41.6904 32.3725 41.6904C32.3725 42.0254 32.3725 42.3454 32.3725 42.6811C32.8388 42.6811 33.3007 42.6811 33.7796 42.6811C33.7796 42.9999 33.7796 43.3034 33.7796 43.6258C33.315 43.6258 32.8484 43.6258 32.371 43.6258C32.371 44.0026 32.371 44.3608 32.371 44.7393C32.7311 44.7393 33.0851 44.7393 33.4391 44.7393C33.6046 44.7393 33.7705 44.7336 33.9352 44.7429C33.9811 44.7454 34.0608 44.7911 34.0617 44.8185C34.0711 45.1027 34.0675 45.3872 34.0675 45.6822C33.0456 45.6822 32.0443 45.6822 31.0195 45.6822C31.0195 45.4412 31.0195 45.2058 31.0195 44.9542Z" fill="#3882CB"/>
<path d="M35.0684 43.6264C35.0684 42.6622 35.0684 41.7141 35.0684 40.7557C35.1324 40.7512 35.181 40.7449 35.2296 40.7448C35.847 40.7442 36.4644 40.7419 37.0817 40.7462C37.2335 40.7472 37.3872 40.7609 37.5364 40.7849C38.0886 40.8737 38.4313 41.2104 38.4961 41.7256C38.5157 41.8807 38.526 42.0374 38.5266 42.1933C38.5298 42.9214 38.529 43.6494 38.5278 44.3775C38.5263 45.2144 37.9612 45.6929 36.9733 45.6946C36.4069 45.6956 35.8404 45.695 35.2739 45.6945C35.2121 45.6945 35.1503 45.6902 35.0684 45.6872C35.0684 44.9986 35.0684 44.3206 35.0684 43.6264ZM36.4042 43.3512C36.4042 43.8492 36.4042 44.3473 36.4042 44.8425C37.0174 44.8866 37.1889 44.7544 37.1889 44.265C37.189 43.5432 37.1895 42.8215 37.1886 42.0997C37.1882 41.6792 36.9051 41.4991 36.4042 41.6123C36.4042 42.1787 36.4042 42.7488 36.4042 43.3512Z" fill="#3882CB"/>
<path d="M40.8512 45.4981C40.8512 45.5662 40.8512 45.6188 40.8512 45.6818C40.4033 45.6818 39.9739 45.6818 39.5293 45.6818C39.5293 44.0431 39.5293 42.4063 39.5293 40.7573C39.9595 40.7573 40.3942 40.7573 40.8512 40.7573C40.8512 42.3354 40.8512 43.9091 40.8512 45.4981Z" fill="#3882CC"/>
<path d="M41.9396 45.2735C42.2596 43.8075 42.579 42.3555 42.8916 40.9025C42.9168 40.785 42.9599 40.7419 43.1077 40.7445C43.5915 40.7531 44.0756 40.7488 44.5595 40.7467C44.6508 40.7464 44.7128 40.7532 44.7337 40.8492C45.084 42.4498 45.4382 44.0498 45.7909 45.6501C45.7929 45.6594 45.7847 45.6702 45.7791 45.6867C45.3251 45.6867 44.8691 45.6867 44.3978 45.6867C44.3537 45.3996 44.3105 45.1183 44.264 44.8153C43.9752 44.8153 43.6909 44.8122 43.407 44.8197C43.3752 44.8205 43.3255 44.8788 43.3184 44.9152C43.2751 45.1385 43.2458 45.3638 43.2013 45.5869C43.1934 45.6264 43.1368 45.6891 43.1014 45.6897C42.6951 45.697 42.2886 45.6943 41.8506 45.6943C41.8819 45.5471 41.9095 45.4172 41.9396 45.2735ZM43.7464 41.9022C43.6529 42.5745 43.5594 43.2468 43.4643 43.9303C43.6916 43.9303 43.8984 43.9303 44.1343 43.9303C44.0331 43.1405 43.9331 42.3602 43.8331 41.58C43.8209 41.5798 43.8087 41.5797 43.7965 41.5795C43.7808 41.6775 43.7651 41.7755 43.7464 41.9022Z" fill="#3882CC"/>
</svg>
