<svg width="126" height="27" viewBox="0 0 126 27" fill="none" xmlns="http://www.w3.org/2000/svg">
<path d="M18.1988 0L17.9089 0.289856L15.8178 3.22982L17.0394 3.14701C18.2609 3.06419 20.9731 3.14701 20.9731 3.14701H25.7764L28.468 3.25053L29.9172 4.36854L30.7247 5.63148L31.5529 7.37062L31.8634 8.77849L31.615 10.2692L31.056 11.3251L30.2899 12.0704L29.5239 12.6087L28.6543 12.9607L27.6605 13.0642L16.5425 13.1056H7.14286L3.89233 16.853L4.05797 16.9773H5.19668H15.0311H21.0145L27.8883 17.0808L32.0705 22.4638L35.1346 26.439L40.0001 26.2526L34.4307 18.9441L31.9462 15.5073C31.9462 15.5073 35.4245 10.145 35.7144 9.27538C36.0042 8.40582 35.4245 6.37683 35.4245 6.37683C35.4245 6.37683 34.0949 3.49534 33.9338 3.25053C33.7727 3.00571 31.4907 1.15942 31.1595 0.952383C30.8282 0.745343 28.5508 0.041408 28.5508 0.041408C28.5508 0.041408 28.3023 0 28.0125 0H21.6149H18.3437H18.1988Z" fill="white"/>
<path d="M28.0124 6.62524H12.091L9.02686 10.559H25.3209L28.0124 6.62524Z" fill="#3883CB"/>
<path d="M0 25.8035L3.39545 21.7041H27.4328L30.8075 25.8035H0Z" fill="#3782CA"/>
<path d="M50.4162 18.2314L47.8681 13.2195H46.5482V18.2314H44V5.21516H49.078C50.3246 5.21516 51.3267 5.59457 52.0845 6.35339C52.8422 7.11221 53.221 8.06686 53.221 9.21732C53.221 10.123 52.9705 10.9063 52.4694 11.5672C51.9806 12.2159 51.3084 12.6626 50.4529 12.9074L53.2394 18.2314H50.4162ZM46.5482 11.0348H48.6014C49.2369 11.0348 49.7318 10.8696 50.0863 10.5391C50.4529 10.2087 50.6362 9.7742 50.6362 9.23568C50.6362 8.68493 50.4529 8.24432 50.0863 7.91387C49.7318 7.58341 49.2369 7.41819 48.6014 7.41819H46.5482V11.0348Z" fill="white"/>
<path d="M55.8852 12.6871H59.9183C59.8938 12.1853 59.7105 11.763 59.3683 11.4203C59.0383 11.0777 58.5495 10.9063 57.9017 10.9063C57.3151 10.9063 56.8385 11.0899 56.4718 11.4571C56.1052 11.8242 55.9097 12.2342 55.8852 12.6871ZM60.1566 15.037L62.1914 15.6428C61.947 16.4751 61.4643 17.1604 60.7432 17.699C60.0344 18.2375 59.1483 18.5067 58.0851 18.5067C56.7896 18.5067 55.6897 18.0723 54.7853 17.2033C53.8809 16.3221 53.4287 15.1471 53.4287 13.6784C53.4287 12.2832 53.8687 11.145 54.7486 10.2638C55.6286 9.37031 56.6674 8.92359 57.8651 8.92359C59.2583 8.92359 60.346 9.33971 61.1282 10.172C61.9226 11.0042 62.3198 12.1486 62.3198 13.605C62.3198 13.7029 62.3137 13.8131 62.3014 13.9355C62.3014 14.0579 62.3014 14.1558 62.3014 14.2292L62.2831 14.3577H55.8302C55.8547 14.9452 56.0869 15.4347 56.5268 15.8264C56.9668 16.218 57.4923 16.4139 58.1034 16.4139C59.1422 16.4139 59.8266 15.9549 60.1566 15.037Z" fill="white"/>
<path d="M65.7613 21.7195H63.3232V9.19896H65.688V10.3005C65.908 9.93331 66.2624 9.62733 66.7513 9.38255C67.2401 9.12553 67.8084 8.99702 68.4562 8.99702C69.7394 8.99702 70.7538 9.43763 71.4993 10.3188C72.2448 11.1878 72.6175 12.3138 72.6175 13.6968C72.6175 15.0798 72.2203 16.218 71.426 17.1115C70.6438 18.0049 69.6233 18.4517 68.3645 18.4517C67.1668 18.4517 66.2991 18.0845 65.7613 17.3502V21.7195ZM69.5744 15.5877C70.0022 15.1227 70.216 14.4985 70.216 13.7152C70.216 12.9319 70.0022 12.3138 69.5744 11.861C69.1589 11.4081 68.6273 11.1817 67.9795 11.1817C67.3318 11.1817 66.794 11.4142 66.3663 11.8793C65.9385 12.3322 65.7247 12.9441 65.7247 13.7152C65.7247 14.4862 65.9385 15.1043 66.3663 15.5694C66.794 16.0345 67.3318 16.267 67.9795 16.267C68.6273 16.267 69.1589 16.0406 69.5744 15.5877Z" fill="white"/>
<path d="M88.3154 18.2314H85.8222V9.10717L82.0825 18.2314H79.9743L76.2345 9.18061V18.2314H73.8147V5.21516H77.1511L81.0559 14.6147L84.869 5.21516H88.3154V18.2314Z" fill="white"/>
<path d="M91.9121 12.6871H95.9451C95.9207 12.1853 95.7374 11.763 95.3952 11.4203C95.0652 11.0777 94.5763 10.9063 93.9286 10.9063C93.342 10.9063 92.8653 11.0899 92.4987 11.4571C92.132 11.8242 91.9365 12.2342 91.9121 12.6871ZM96.1834 15.037L98.2183 15.6428C97.9739 16.4751 97.4911 17.1604 96.7701 17.699C96.0612 18.2375 95.1752 18.5067 94.1119 18.5067C92.8164 18.5067 91.7165 18.0723 90.8121 17.2033C89.9077 16.3221 89.4556 15.1471 89.4556 13.6784C89.4556 12.2832 89.8955 11.145 90.7755 10.2638C91.6554 9.37031 92.6942 8.92359 93.8919 8.92359C95.2852 8.92359 96.3729 9.33971 97.155 10.172C97.9494 11.0042 98.3466 12.1486 98.3466 13.605C98.3466 13.7029 98.3405 13.8131 98.3283 13.9355C98.3283 14.0579 98.3283 14.1558 98.3283 14.2292L98.31 14.3577H91.8571C91.8815 14.9452 92.1137 15.4347 92.5537 15.8264C92.9937 16.218 93.5192 16.4139 94.1302 16.4139C95.1691 16.4139 95.8535 15.9549 96.1834 15.037Z" fill="white"/>
<path d="M107.948 4.93979V16.5975C107.948 17.1972 107.972 17.7418 108.021 18.2314H105.693C105.632 17.9254 105.601 17.5766 105.601 17.1849C105.393 17.5643 105.064 17.8703 104.611 18.1029C104.171 18.3354 103.658 18.4517 103.071 18.4517C101.788 18.4517 100.731 18.0049 99.9 17.1115C99.0811 16.2058 98.6717 15.0676 98.6717 13.6968C98.6717 12.3628 99.075 11.2429 99.8816 10.3372C100.7 9.43151 101.739 8.97866 102.998 8.97866C104.294 8.97866 105.143 9.35195 105.546 10.0985V4.93979H107.948ZM101.128 13.6968C101.128 14.4923 101.336 15.1227 101.752 15.5877C102.167 16.0406 102.705 16.267 103.365 16.267C104.012 16.267 104.544 16.0345 104.96 15.5694C105.375 15.1043 105.583 14.474 105.583 13.6784C105.583 12.8951 105.375 12.2832 104.96 11.8426C104.544 11.3897 104.012 11.1633 103.365 11.1633C102.717 11.1633 102.179 11.3897 101.752 11.8426C101.336 12.2954 101.128 12.9135 101.128 13.6968Z" fill="white"/>
<path d="M112.114 18.2314H109.676V9.19896H112.114V18.2314ZM109.383 6.24324C109.383 5.82711 109.529 5.47218 109.823 5.17845C110.116 4.87247 110.471 4.71948 110.886 4.71948C111.302 4.71948 111.656 4.86635 111.949 5.16009C112.243 5.45382 112.389 5.81488 112.389 6.24324C112.389 6.64713 112.243 6.99594 111.949 7.28968C111.656 7.58341 111.302 7.73028 110.886 7.73028C110.471 7.73028 110.116 7.58341 109.823 7.28968C109.529 6.99594 109.383 6.64713 109.383 6.24324Z" fill="#3782CA"/>
<path d="M113.258 15.7713C113.258 15.0003 113.509 14.3822 114.01 13.9171C114.511 13.452 115.158 13.1583 115.953 13.0359L118.171 12.7054C118.623 12.6442 118.849 12.4301 118.849 12.0629C118.849 11.7202 118.715 11.4387 118.446 11.2184C118.189 10.9981 117.817 10.8879 117.328 10.8879C116.814 10.8879 116.405 11.0287 116.1 11.3102C115.806 11.5917 115.641 11.9405 115.605 12.3566L113.441 11.8977C113.527 11.1144 113.912 10.4229 114.596 9.82315C115.281 9.22344 116.185 8.92359 117.309 8.92359C118.654 8.92359 119.644 9.24792 120.279 9.89659C120.915 10.533 121.233 11.353 121.233 12.3566V16.7994C121.233 17.3379 121.269 17.8152 121.343 18.2314H119.106C119.045 17.9621 119.014 17.6011 119.014 17.1482C118.44 18.0417 117.554 18.4884 116.356 18.4884C115.427 18.4884 114.676 18.2191 114.101 17.6806C113.539 17.1421 113.258 16.5057 113.258 15.7713ZM116.869 16.6709C117.444 16.6709 117.914 16.5118 118.281 16.1936C118.66 15.8631 118.849 15.3246 118.849 14.578V14.1741L116.814 14.4862C116.069 14.5964 115.696 14.9758 115.696 15.6245C115.696 15.9182 115.8 16.1691 116.008 16.3772C116.216 16.573 116.503 16.6709 116.869 16.6709Z" fill="white"/>
<path d="M123.14 17.8826C122.81 17.5521 122.645 17.1543 122.645 16.6892C122.645 16.2242 122.81 15.8325 123.14 15.5143C123.47 15.1838 123.861 15.0186 124.313 15.0186C124.778 15.0186 125.175 15.1838 125.505 15.5143C125.835 15.8325 126 16.2242 126 16.6892C126 17.1543 125.835 17.5521 125.505 17.8826C125.175 18.2008 124.778 18.3599 124.313 18.3599C123.861 18.3599 123.47 18.2008 123.14 17.8826Z" fill="white"/>
</svg>
