<svg width="40" height="28" viewBox="0 0 40 28" fill="none" xmlns="http://www.w3.org/2000/svg">
<path d="M18.1985 0.780518L17.9087 1.07037L15.8176 4.01034L17.0391 3.92752C18.2607 3.84471 20.9729 3.92752 20.9729 3.92752H25.7762L28.4677 4.03104L29.917 5.14906L30.7245 6.412L31.5526 8.15114L31.8632 9.55901L31.6147 11.0497L31.0557 12.1056L30.2897 12.8509L29.5236 13.3892L28.6541 13.7412L27.6603 13.8447L16.5422 13.8861H7.14262L3.89209 17.6336L4.05772 17.7578H5.19644H15.0308H21.0143L27.888 17.8613L32.0702 23.2443L35.1344 27.2195L39.9998 27.0332L34.4305 19.7247L31.946 16.2878C31.946 16.2878 35.4243 10.9255 35.7141 10.0559C36.004 9.18633 35.4243 7.15734 35.4243 7.15734C35.4243 7.15734 34.0947 4.27586 33.9336 4.03104C33.7725 3.78622 31.4905 1.93994 31.1592 1.7329C30.828 1.52586 28.5505 0.821926 28.5505 0.821926C28.5505 0.821926 28.3021 0.780518 28.0122 0.780518H21.6147H18.3435H18.1985Z" fill="#021943"/>
<path d="M28.0124 7.40573H12.091L9.02686 11.3395H25.3209L28.0124 7.40573Z" fill="#3883CB"/>
<path d="M0 25.584L3.39545 21.4846H27.4328L30.8075 25.584H0Z" fill="#3782CA"/>
</svg>
