<svg width="41" height="41" viewBox="0 0 41 41" fill="none" xmlns="http://www.w3.org/2000/svg">
<path d="M19.5165 5.49883C20.0998 5.06549 20.8832 5.06549 21.4832 5.49883C23.5165 6.96549 27.9998 11.4822 27.9998 22.3822C27.9998 25.9822 26.6998 30.3155 25.7332 32.9655C25.4998 33.6155 24.8832 34.0488 24.1832 34.0488H16.8332C16.1332 34.0488 15.4998 33.6155 15.2665 32.9655C14.2998 30.3155 12.9998 25.9822 12.9998 22.3822C12.9998 11.4822 17.4832 6.96549 19.5165 5.49883ZM23.8332 19.0488C23.8332 17.2155 22.3332 15.7155 20.4998 15.7155C18.6665 15.7155 17.1665 17.2155 17.1665 19.0488C17.1665 20.8822 18.6665 22.3822 20.4998 22.3822C22.3332 22.3822 23.8332 20.8822 23.8332 19.0488ZM13.3165 34.9155C12.5165 32.8655 10.7832 27.9655 10.5332 23.4655L8.64984 24.7155C7.7165 25.3488 7.1665 26.3822 7.1665 27.4988V34.9155C7.1665 36.0988 8.34984 36.8988 9.44984 36.4655L13.3165 34.9155ZM33.8332 34.9155V27.4988C33.8332 26.3822 33.2832 25.3488 32.3498 24.7322L30.4665 23.4822C30.2165 27.9655 28.4665 32.8822 27.6832 34.9322L31.5498 36.4822C32.6498 36.8988 33.8332 36.0988 33.8332 34.9155Z" fill="#3883CB"/>
</svg>
