<svg width="115" height="116" viewBox="0 0 115 116" fill="none" xmlns="http://www.w3.org/2000/svg">
<path d="M57.2138 10.3803C30.9757 10.3803 9.59473 31.7612 9.59473 57.9993C9.59473 84.2374 30.9757 105.618 57.2138 105.618C83.4519 105.618 104.833 84.2374 104.833 57.9993C104.833 31.7612 83.4519 10.3803 57.2138 10.3803ZM79.9757 47.0469L52.9757 74.0469C52.309 74.7136 51.4042 75.0945 50.4519 75.0945C49.4995 75.0945 48.5947 74.7136 47.9281 74.0469L34.4519 60.5707C33.0709 59.1898 33.0709 56.9041 34.4519 55.5231C35.8328 54.1422 38.1185 54.1422 39.4995 55.5231L50.4519 66.4755L74.9281 41.9993C76.309 40.6184 78.5947 40.6184 79.9757 41.9993C81.3566 43.3803 81.3566 45.6183 79.9757 47.0469Z" fill="#23A26D"/>
</svg>
