<svg width="504" height="330" viewBox="0 0 504 330" fill="none" xmlns="http://www.w3.org/2000/svg">
<path fill-rule="evenodd" clip-rule="evenodd" d="M49 0V44H-4V46H49V124H-4V126H49V204H-4V206H49V284H-4V286H49V330H51V286H129V330H131V286H209V330H211V286H289V330H291V286H368.5V330H370.5V286H448.5V330H450.5V286H504V284H450.5V206H504V204H450.5V126H504V124H450.5V46H504V44H450.5V0H448.5V44L370.5 44V0H368.5V44L291 44V0H289V44H211V0H209V44L131 44V0H129V44L51 44V0H49ZM448.5 284V206H370.5V284H448.5ZM368.5 284V206H291V284H368.5ZM289 284V206L211 206V284H289ZM209 284V206H131V284H209ZM129 284V206H51V284H129ZM51 204V126L129 126V204H51ZM51 124L129 124V46L51 46V124ZM131 204V126H209V204H131ZM131 124H209V46L131 46V124ZM211 204V126H289V204L211 204ZM211 124H289V46H211V124ZM291 204V126H368.5V204H291ZM291 124H368.5V46L291 46V124ZM370.5 204V126L448.5 126V204H370.5ZM370.5 124L448.5 124V46L370.5 46V124Z" fill="url(#paint0_linear_48_5597)"/>
<defs>
<linearGradient id="paint0_linear_48_5597" x1="-52" y1="-56" x2="554.5" y2="346" gradientUnits="userSpaceOnUse">
<stop stop-color="#374C72" stop-opacity="0.13"/>
<stop offset="1" stop-color="#1B2435" stop-opacity="0"/>
</linearGradient>
</defs>
</svg>
