<svg width="508" height="330" viewBox="0 0 508 330" fill="none" xmlns="http://www.w3.org/2000/svg">
<path fill-rule="evenodd" clip-rule="evenodd" d="M53 0V44H0V46H53V124H0V126H53V204H0V206H53V284H0V286H53V330H55V286H133V330H135V286H213V330H215V286H293V330H295V286H372.5V330H374.5V286H452.5V330H454.5V286H508V284H454.5V206H508V204H454.5V126H508V124H454.5V46H508V44H454.5V0H452.5V44L374.5 44V0H372.5V44L295 44V0H293V44H215V0H213V44L135 44V0H133V44L55 44V0H53ZM452.5 284V206H374.5V284H452.5ZM372.5 284V206H295V284H372.5ZM293 284V206L215 206V284H293ZM213 284V206H135V284H213ZM133 284V206H55V284H133ZM55 204V126L133 126V204H55ZM55 124L133 124V46L55 46V124ZM135 204V126H213V204H135ZM135 124H213V46L135 46V124ZM215 204V126H293V204L215 204ZM215 124H293V46H215V124ZM295 204V126H372.5V204H295ZM295 124H372.5V46L295 46V124ZM374.5 204V126L452.5 126V204H374.5ZM374.5 124L452.5 124V46L374.5 46V124Z" fill="url(#paint0_linear_48_5610)"/>
<defs>
<linearGradient id="paint0_linear_48_5610" x1="-48" y1="-56" x2="555.5" y2="381" gradientUnits="userSpaceOnUse">
<stop stop-color="#374C72" stop-opacity="0"/>
<stop offset="0.982207" stop-color="#1B2435" stop-opacity="0.08"/>
</linearGradient>
</defs>
</svg>
