<svg width="46" height="46" viewBox="0 0 46 46" fill="none" xmlns="http://www.w3.org/2000/svg">
<path d="M14.2991 37.0683H10.619C4.984 36.6658 2.4541 32.3342 2.4541 28.4817C2.4541 24.6292 4.98403 20.2784 10.5232 19.895C11.309 19.8184 11.999 20.4317 12.0565 21.2367C12.114 22.0225 11.5199 22.7125 10.7149 22.77C6.9966 23.0384 5.3291 25.8367 5.3291 28.5008C5.3291 31.165 6.9966 33.9634 10.7149 34.2317H14.2991C15.0849 34.2317 15.7366 34.8834 15.7366 35.6692C15.7366 36.455 15.0849 37.0683 14.2991 37.0683Z" fill="currentColor"/>
<path d="M31.9507 37.0684C31.9124 37.0684 31.8932 37.0684 31.8549 37.0684C31.0691 37.0684 30.3408 36.4167 30.3408 35.6309C30.3408 34.8067 30.9541 34.1934 31.7591 34.1934C34.1166 34.1934 36.2249 33.3692 37.8733 31.8934C40.8633 29.2867 41.0549 25.53 40.2499 22.885C39.4449 20.2592 37.2024 17.25 33.2924 16.7709C32.6599 16.6942 32.1615 16.2151 32.0465 15.5826C31.2799 10.9826 28.8074 7.80088 25.0508 6.65088C21.1791 5.44338 16.6557 6.63171 13.8382 9.58338C11.0974 12.4392 10.4649 16.4451 12.0557 20.8534C12.324 21.6009 11.9408 22.425 11.1933 22.6934C10.4458 22.9617 9.62159 22.5784 9.35326 21.8309C7.41743 16.4259 8.29911 11.2509 11.7683 7.60921C15.3141 3.89088 21.0066 2.41503 25.8941 3.91003C30.3791 5.29003 33.5415 8.9892 34.6915 14.1259C38.6015 15.0075 41.7449 17.9784 42.9907 22.0801C44.3516 26.5459 43.1249 31.1459 39.7707 34.0592C37.6432 35.9759 34.864 37.0684 31.9507 37.0684Z" fill="currentColor"/>
<path d="M22.9998 42.7034C19.1473 42.7034 15.544 40.6526 13.5699 37.3367C13.359 37.0109 13.1482 36.6276 12.9757 36.2059C12.324 34.8451 11.979 33.2926 11.979 31.6826C11.979 25.6067 16.924 20.6617 22.9998 20.6617C29.0757 20.6617 34.0207 25.6067 34.0207 31.6826C34.0207 33.3117 33.6757 34.8451 32.9857 36.2634C32.8324 36.6276 32.6216 37.0109 32.3916 37.3751C30.4557 40.6526 26.8523 42.7034 22.9998 42.7034ZM22.9998 23.5367C18.5148 23.5367 14.854 27.1976 14.854 31.6826C14.854 32.8709 15.1032 33.9826 15.5823 34.9984C15.7357 35.3242 15.8698 35.5926 16.0231 35.8417C17.4798 38.3142 20.144 39.8284 22.9807 39.8284C25.8173 39.8284 28.4815 38.3142 29.919 35.8801C30.0915 35.5926 30.2449 35.3242 30.3599 35.0559C30.8774 34.0017 31.1265 32.8901 31.1265 31.7017C31.1457 27.1976 27.4848 23.5367 22.9998 23.5367Z" fill="currentColor"/>
<path d="M21.9074 35.0174C21.5432 35.0174 21.1791 34.8832 20.8916 34.5957L18.994 32.6982C18.4382 32.1424 18.4382 31.2224 18.994 30.6666C19.5499 30.1107 20.4699 30.1107 21.0257 30.6666L21.9458 31.5866L25.0124 28.7499C25.6066 28.2132 26.5074 28.2516 27.044 28.8266C27.5807 29.4016 27.5424 30.3216 26.9674 30.8582L22.8849 34.6341C22.5974 34.8832 22.2524 35.0174 21.9074 35.0174Z" fill="currentColor"/>
</svg>
