<svg width="25" height="24" viewBox="0 0 25 24" fill="none" xmlns="http://www.w3.org/2000/svg">
<path d="M12.3955 7C11.8455 7 11.3955 6.55 11.3955 6V2C11.3955 1.45 11.8455 1 12.3955 1C12.9455 1 13.3955 1.45 13.3955 2V6C13.3955 6.55 12.9455 7 12.3955 7ZM12.3955 23C11.8455 23 11.3955 22.55 11.3955 22V18C11.3955 17.45 11.8455 17 12.3955 17C12.9455 17 13.3955 17.45 13.3955 18V22C13.3955 22.55 12.9455 23 12.3955 23ZM22.3955 13H18.3955C17.8455 13 17.3955 12.55 17.3955 12C17.3955 11.45 17.8455 11 18.3955 11H22.3955C22.9455 11 23.3955 11.45 23.3955 12C23.3955 12.55 22.9455 13 22.3955 13ZM6.39551 13H2.39551C1.84551 13 1.39551 12.55 1.39551 12C1.39551 11.45 1.84551 11 2.39551 11H6.39551C6.94551 11 7.39551 11.45 7.39551 12C7.39551 12.55 6.94551 13 6.39551 13ZM19.4655 20.07C19.2055 20.07 18.9555 19.97 18.7555 19.78L15.9255 16.95C15.8329 16.8574 15.7595 16.7475 15.7094 16.6265C15.6593 16.5056 15.6335 16.3759 15.6335 16.245C15.6335 16.1141 15.6593 15.9844 15.7094 15.8635C15.7595 15.7425 15.8329 15.6326 15.9255 15.54C16.0181 15.4474 16.128 15.374 16.249 15.3239C16.3699 15.2738 16.4996 15.248 16.6305 15.248C16.7614 15.248 16.8911 15.2738 17.0121 15.3239C17.133 15.374 17.2429 15.4474 17.3355 15.54L20.1655 18.37C20.3051 18.5097 20.4 18.6876 20.4381 18.8813C20.4763 19.075 20.4561 19.2757 20.38 19.4579C20.3039 19.64 20.1754 19.7955 20.0108 19.9045C19.8462 20.0135 19.6529 20.0711 19.4555 20.07H19.4655ZM8.15551 8.76C7.89551 8.76 7.64551 8.66 7.44551 8.47L4.61551 5.64C4.52293 5.54742 4.44949 5.43751 4.39938 5.31654C4.34928 5.19558 4.32349 5.06593 4.32349 4.935C4.32349 4.80407 4.34928 4.67442 4.39938 4.55346C4.44949 4.43249 4.52293 4.32258 4.61551 4.23C4.70809 4.13742 4.818 4.06398 4.93896 4.01387C5.05993 3.96377 5.18958 3.93798 5.32051 3.93798C5.45144 3.93798 5.58109 3.96377 5.70205 4.01387C5.82302 4.06398 5.93293 4.13742 6.02551 4.23L8.85551 7.06C8.99506 7.19965 9.08995 7.37762 9.12815 7.57132C9.16634 7.76501 9.14611 7.96569 9.07003 8.14786C8.99395 8.33003 8.86544 8.48549 8.70083 8.59448C8.53622 8.70347 8.34293 8.76108 8.14551 8.76H8.15551ZM5.32551 20.07C5.06551 20.07 4.81551 19.97 4.61551 19.78C4.5228 19.6875 4.44926 19.5776 4.39908 19.4566C4.34889 19.3357 4.32306 19.206 4.32306 19.075C4.32306 18.944 4.34889 18.8144 4.39908 18.6934C4.44926 18.5724 4.5228 18.4625 4.61551 18.37L7.44551 15.54C7.53809 15.4474 7.648 15.374 7.76896 15.3239C7.88993 15.2738 8.01958 15.248 8.15051 15.248C8.28144 15.248 8.41109 15.2738 8.53205 15.3239C8.65302 15.374 8.76293 15.4474 8.85551 15.54C8.94809 15.6326 9.02153 15.7425 9.07163 15.8635C9.12174 15.9844 9.14753 16.1141 9.14753 16.245C9.14753 16.3759 9.12174 16.5056 9.07163 16.6265C9.02153 16.7475 8.94809 16.8574 8.85551 16.95L6.02551 19.78C5.82551 19.98 5.57551 20.07 5.31551 20.07H5.32551ZM16.6355 8.76C16.3755 8.76 16.1255 8.66 15.9255 8.47C15.8328 8.37749 15.7593 8.2676 15.7091 8.14662C15.6589 8.02565 15.6331 7.89597 15.6331 7.765C15.6331 7.63403 15.6589 7.50435 15.7091 7.38338C15.7593 7.2624 15.8328 7.15251 15.9255 7.06L18.7555 4.23C18.8481 4.13742 18.958 4.06398 19.079 4.01387C19.1999 3.96377 19.3296 3.93798 19.4605 3.93798C19.5914 3.93798 19.7211 3.96377 19.8421 4.01387C19.963 4.06398 20.0729 4.13742 20.1655 4.23C20.2581 4.32258 20.3315 4.43249 20.3816 4.55346C20.4317 4.67442 20.4575 4.80407 20.4575 4.935C20.4575 5.06593 20.4317 5.19558 20.3816 5.31654C20.3315 5.43751 20.2581 5.54742 20.1655 5.64L17.3355 8.47C17.1355 8.67 16.8855 8.76 16.6255 8.76H16.6355Z" fill="#3782CA"/>
</svg>
