<svg width="52" height="52" viewBox="0 0 52 52" fill="none" xmlns="http://www.w3.org/2000/svg">
<path d="M50.375 26C50.3767 24.1338 49.9193 22.2959 49.043 20.6483C48.1667 19.0006 46.8986 17.5939 45.3503 16.5521C43.802 15.5103 42.0212 14.8654 40.1648 14.6743C38.3085 14.4832 36.4336 14.7517 34.7055 15.4563C32.9775 16.1608 31.4493 17.2797 30.2557 18.7143C29.0622 20.1489 28.2399 21.855 27.8614 23.6824C27.4829 25.5098 27.5598 27.4022 28.0854 29.1929C28.6109 30.9835 29.569 32.6173 30.875 33.9503V45.5C30.8748 45.7771 30.9455 46.0497 31.0803 46.2918C31.2152 46.534 31.4097 46.7376 31.6454 46.8833C31.8811 47.029 32.1502 47.1121 32.4271 47.1245C32.7039 47.137 32.9794 47.0784 33.2272 46.9544L39 44.0659L44.7728 46.9544C45.0206 47.0784 45.2961 47.137 45.5729 47.1245C45.8498 47.1121 46.1189 47.029 46.3546 46.8833C46.5903 46.7376 46.7848 46.534 46.9197 46.2918C47.0545 46.0497 47.1252 45.7771 47.125 45.5V33.9503C49.2092 31.8291 50.3764 28.9738 50.375 26ZM39 17.875C40.607 17.875 42.1779 18.3515 43.514 19.2443C44.8502 20.1371 45.8916 21.406 46.5065 22.8907C47.1215 24.3753 47.2824 26.009 46.9689 27.5851C46.6554 29.1612 45.8815 30.6089 44.7452 31.7452C43.6089 32.8815 42.1612 33.6554 40.5851 33.9689C39.009 34.2824 37.3753 34.1215 35.8907 33.5065C34.406 32.8916 33.1371 31.8502 32.2443 30.514C31.3515 29.1779 30.875 27.607 30.875 26C30.875 23.8451 31.731 21.7785 33.2548 20.2548C34.7785 18.731 36.8451 17.875 39 17.875ZM39.7272 40.7956C39.5014 40.6827 39.2524 40.6238 39 40.6238C38.7476 40.6238 38.4986 40.6827 38.2728 40.7956L34.125 42.8716V36.2761C35.6483 36.9996 37.3136 37.375 39 37.375C40.6864 37.375 42.3517 36.9996 43.875 36.2761V42.8716L39.7272 40.7956ZM27.625 39C27.625 39.431 27.4538 39.8443 27.149 40.1491C26.8443 40.4538 26.431 40.625 26 40.625H8.125C7.26305 40.625 6.4364 40.2826 5.8269 39.6731C5.21741 39.0636 4.875 38.237 4.875 37.375V11.375C4.875 10.513 5.21741 9.6864 5.8269 9.0769C6.4364 8.46741 7.26305 8.125 8.125 8.125H43.875C44.737 8.125 45.5636 8.46741 46.1731 9.0769C46.7826 9.6864 47.125 10.513 47.125 11.375C47.125 11.806 46.9538 12.2193 46.649 12.524C46.3443 12.8288 45.931 13 45.5 13C45.069 13 44.6557 12.8288 44.351 12.524C44.0462 12.2193 43.875 11.806 43.875 11.375H8.125V37.375H26C26.431 37.375 26.8443 37.5462 27.149 37.851C27.4538 38.1557 27.625 38.569 27.625 39ZM24.375 27.625C24.375 28.056 24.2038 28.4693 23.899 28.7741C23.5943 29.0788 23.181 29.25 22.75 29.25H14.625C14.194 29.25 13.7807 29.0788 13.476 28.7741C13.1712 28.4693 13 28.056 13 27.625C13 27.194 13.1712 26.7807 13.476 26.476C13.7807 26.1712 14.194 26 14.625 26H22.75C23.181 26 23.5943 26.1712 23.899 26.476C24.2038 26.7807 24.375 27.194 24.375 27.625ZM24.375 21.125C24.375 21.556 24.2038 21.9693 23.899 22.274C23.5943 22.5788 23.181 22.75 22.75 22.75H14.625C14.194 22.75 13.7807 22.5788 13.476 22.274C13.1712 21.9693 13 21.556 13 21.125C13 20.694 13.1712 20.2807 13.476 19.976C13.7807 19.6712 14.194 19.5 14.625 19.5H22.75C23.181 19.5 23.5943 19.6712 23.899 19.976C24.2038 20.2807 24.375 20.694 24.375 21.125Z" fill="#6BB93B"/>
</svg>
